<svg xmlns="http://www.w3.org/2000/svg" version="1.1" width="425" height="425" viewBox="0 0 425 425"><defs><clipPath id="clip-1"><rect x="0" y="25" width="400" height="400"/></clipPath></defs><path fill="none" stroke="#000000" d="M 0,425 L 0,25" style="stroke-width: 2px;opacity: 0.1" stroke-width="2" opacity="0.1"/><path fill="none" stroke="#000000" d="M 20,425 L 20,25" style="stroke-width: 2px;opacity: 0.1" stroke-width="2" opacity="0.1"/><path fill="none" stroke="#000000" d="M 40,425 L 40,25" style="stroke-width: 2px;opacity: 0.1" stroke-width="2" opacity="0.1"/><path fill="none" stroke="#000000" d="M 60,425 L 60,25" style="stroke-width: 2px;opacity: 0.1" stroke-width="2" opacity="0.1"/><path fill="none" stroke="#000000" d="M 80,425 L 80,25" style="stroke-width: 2px;opacity: 0.1" stroke-width="2" opacity="0.1"/><path fill="none" stroke="#000000" d="M 100,425 L 100,25" style="stroke-width: 2px;opacity: 0.1" stroke-width="2" opacity="0.1"/><path fill="none" stroke="#000000" d="M 120,425 L 120,25" style="stroke-width: 2px;opacity: 0.1" stroke-width="2" opacity="0.1"/><path fill="none" stroke="#000000" d="M 140,425 L 140,25" style="stroke-width: 2px;opacity: 0.1" stroke-width="2" opacity="0.1"/><path fill="none" stroke="#000000" d="M 160,425 L 160,25" style="stroke-width: 2px;opacity: 0.1" stroke-width="2" opacity="0.1"/><path fill="none" stroke="#000000" d="M 180,425 L 180,25" style="stroke-width: 2px;opacity: 0.1" stroke-width="2" opacity="0.1"/><path fill="none" stroke="#000000" d="M 200,425 L 200,25" style="stroke-width: 2px;opacity: 0.1" stroke-width="2" opacity="0.1"/><path fill="none" stroke="#000000" d="M 220,425 L 220,25" style="stroke-width: 2px;opacity: 0.1" stroke-width="2" opacity="0.1"/><path fill="none" stroke="#000000" d="M 240,425 L 240,25" style="stroke-width: 2px;opacity: 0.1" stroke-width="2" opacity="0.1"/><path fill="none" stroke="#000000" d="M 260,425 L 260,25" style="stroke-width: 2px;opacity: 0.1" stroke-width="2" opacity="0.1"/><path fill="none" stroke="#000000" d="M 280,425 L 280,25" style="stroke-width: 2px;opacity: 0.1" stroke-width="2" opacity="0.1"/><path fill="none" stroke="#000000" d="M 300,425 L 300,25" style="stroke-width: 2px;opacity: 0.1" stroke-width="2" opacity="0.1"/><path fill="none" stroke="#000000" d="M 320,425 L 320,25" style="stroke-width: 2px;opacity: 0.1" stroke-width="2" opacity="0.1"/><path fill="none" stroke="#000000" d="M 340,425 L 340,25" style="stroke-width: 2px;opacity: 0.1" stroke-width="2" opacity="0.1"/><path fill="none" stroke="#000000" d="M 360,425 L 360,25" style="stroke-width: 2px;opacity: 0.1" stroke-width="2" opacity="0.1"/><path fill="none" stroke="#000000" d="M 380,425 L 380,25" style="stroke-width: 2px;opacity: 0.1" stroke-width="2" opacity="0.1"/><path fill="none" stroke="#000000" d="M 400,425 L 400,25" style="stroke-width: 2px;opacity: 0.1" stroke-width="2" opacity="0.1"/><path fill="none" stroke="#000000" d="M 0,425 L 400,425" style="stroke-width: 2px;opacity: 0.1" stroke-width="2" opacity="0.1"/><path fill="none" stroke="#000000" d="M 0,405 L 400,405" style="stroke-width: 2px;opacity: 0.1" stroke-width="2" opacity="0.1"/><path fill="none" stroke="#000000" d="M 0,385 L 400,385" style="stroke-width: 2px;opacity: 0.1" stroke-width="2" opacity="0.1"/><path fill="none" stroke="#000000" d="M 0,365 L 400,365" style="stroke-width: 2px;opacity: 0.1" stroke-width="2" opacity="0.1"/><path fill="none" stroke="#000000" d="M 0,345 L 400,345" style="stroke-width: 2px;opacity: 0.1" stroke-width="2" opacity="0.1"/><path fill="none" stroke="#000000" d="M 0,325 L 400,325" style="stroke-width: 2px;opacity: 0.1" stroke-width="2" opacity="0.1"/><path fill="none" stroke="#000000" d="M 0,305 L 400,305" style="stroke-width: 2px;opacity: 0.1" stroke-width="2" opacity="0.1"/><path fill="none" stroke="#000000" d="M 0,285 L 400,285" style="stroke-width: 2px;opacity: 0.1" stroke-width="2" opacity="0.1"/><path fill="none" stroke="#000000" d="M 0,265 L 400,265" style="stroke-width: 2px;opacity: 0.1" stroke-width="2" opacity="0.1"/><path fill="none" stroke="#000000" d="M 0,245 L 400,245" style="stroke-width: 2px;opacity: 0.1" stroke-width="2" opacity="0.1"/><path fill="none" stroke="#000000" d="M 0,225 L 400,225" style="stroke-width: 2px;opacity: 0.1" stroke-width="2" opacity="0.1"/><path fill="none" stroke="#000000" d="M 0,205 L 400,205" style="stroke-width: 2px;opacity: 0.1" stroke-width="2" opacity="0.1"/><path fill="none" stroke="#000000" d="M 0,185 L 400,185" style="stroke-width: 2px;opacity: 0.1" stroke-width="2" opacity="0.1"/><path fill="none" stroke="#000000" d="M 0,165 L 400,165" style="stroke-width: 2px;opacity: 0.1" stroke-width="2" opacity="0.1"/><path fill="none" stroke="#000000" d="M 0,145 L 400,145" style="stroke-width: 2px;opacity: 0.1" stroke-width="2" opacity="0.1"/><path fill="none" stroke="#000000" d="M 0,125 L 400,125" style="stroke-width: 2px;opacity: 0.1" stroke-width="2" opacity="0.1"/><path fill="none" stroke="#000000" d="M 0,105 L 400,105" style="stroke-width: 2px;opacity: 0.1" stroke-width="2" opacity="0.1"/><path fill="none" stroke="#000000" d="M 0,85 L 400,85" style="stroke-width: 2px;opacity: 0.1" stroke-width="2" opacity="0.1"/><path fill="none" stroke="#000000" d="M 0,65 L 400,65" style="stroke-width: 2px;opacity: 0.1" stroke-width="2" opacity="0.1"/><path fill="none" stroke="#000000" d="M 0,45 L 400,45" style="stroke-width: 2px;opacity: 0.1" stroke-width="2" opacity="0.1"/><path fill="none" stroke="#000000" d="M 0,25 L 400,25" style="stroke-width: 2px;opacity: 0.1" stroke-width="2" opacity="0.1"/><path fill="none" stroke="#000000" d="M -3.45,230.6 C -3.1,228.5 0.75,225.35 1.8,225 C 0.75,224.65 -3.1,221.5 -3.45,219.4" transform="rotate(180 1.8000000000000114 225)" style="stroke-width: 2px;opacity: 1;stroke-linejoin: round;stroke-linecap: round" stroke-width="2" opacity="1" stroke-linejoin="round" stroke-linecap="round"/><path fill="none" stroke="#000000" d="M 200,225 S 200,225 1.05,225" style="stroke-width: 2px;opacity: 1" stroke-width="2" opacity="1"/><path fill="none" stroke="#000000" d="M 394.45,230.6 C 394.8,228.5 398.65,225.35 399.7,225 C 398.65,224.65 394.8,221.5 394.45,219.4" transform="" style="stroke-width: 2px;opacity: 1;stroke-linejoin: round;stroke-linecap: round" stroke-width="2" opacity="1" stroke-linejoin="round" stroke-linecap="round"/><path fill="none" stroke="#000000" d="M 200,225 S 200,225 398.95,225" style="stroke-width: 2px;opacity: 1" stroke-width="2" opacity="1"/><path fill="none" stroke="#000000" d="M 195.5,429.55 C 195.85,427.45 199.7,424.3 200.75,423.95 C 199.7,423.6 195.85,420.45 195.5,418.35" transform="rotate(90 200.75 423.95)" style="stroke-width: 2px;opacity: 1;stroke-linejoin: round;stroke-linecap: round" stroke-width="2" opacity="1" stroke-linejoin="round" stroke-linecap="round"/><path fill="none" stroke="#000000" d="M 200,225 S 200,225 200,423.95" style="stroke-width: 2px;opacity: 1" stroke-width="2" opacity="1"/><path fill="none" stroke="#000000" d="M 195.5,31.65 C 195.85,29.55 199.7,26.4 200.75,26.05 C 199.7,25.7 195.85,22.55 195.5,20.45" transform="rotate(-90 200.75 26.05000000000001)" style="stroke-width: 2px;opacity: 1;stroke-linejoin: round;stroke-linecap: round" stroke-width="2" opacity="1" stroke-linejoin="round" stroke-linecap="round"/><path fill="none" stroke="#000000" d="M 200,225 S 200,225 200,26.05" style="stroke-width: 2px;opacity: 1" stroke-width="2" opacity="1"/><path fill="none" stroke="#000000" d="M 220,230 L 220,220" style="stroke-width: 1px;opacity: 1" stroke-width="1" opacity="1"/><path fill="none" stroke="#000000" d="M 240,230 L 240,220" style="stroke-width: 1px;opacity: 1" stroke-width="1" opacity="1"/><path fill="none" stroke="#000000" d="M 260,230 L 260,220" style="stroke-width: 1px;opacity: 1" stroke-width="1" opacity="1"/><path fill="none" stroke="#000000" d="M 280,230 L 280,220" style="stroke-width: 1px;opacity: 1" stroke-width="1" opacity="1"/><path fill="none" stroke="#000000" d="M 300,230 L 300,220" style="stroke-width: 1px;opacity: 1" stroke-width="1" opacity="1"/><path fill="none" stroke="#000000" d="M 320,230 L 320,220" style="stroke-width: 1px;opacity: 1" stroke-width="1" opacity="1"/><path fill="none" stroke="#000000" d="M 340,230 L 340,220" style="stroke-width: 1px;opacity: 1" stroke-width="1" opacity="1"/><path fill="none" stroke="#000000" d="M 360,230 L 360,220" style="stroke-width: 1px;opacity: 1" stroke-width="1" opacity="1"/><path fill="none" stroke="#000000" d="M 380,230 L 380,220" style="stroke-width: 1px;opacity: 1" stroke-width="1" opacity="1"/><path fill="none" stroke="#000000" d="M 180,230 L 180,220" style="stroke-width: 1px;opacity: 1" stroke-width="1" opacity="1"/><path fill="none" stroke="#000000" d="M 160,230 L 160,220" style="stroke-width: 1px;opacity: 1" stroke-width="1" opacity="1"/><path fill="none" stroke="#000000" d="M 140,230 L 140,220" style="stroke-width: 1px;opacity: 1" stroke-width="1" opacity="1"/><path fill="none" stroke="#000000" d="M 120,230 L 120,220" style="stroke-width: 1px;opacity: 1" stroke-width="1" opacity="1"/><path fill="none" stroke="#000000" d="M 100,230 L 100,220" style="stroke-width: 1px;opacity: 1" stroke-width="1" opacity="1"/><path fill="none" stroke="#000000" d="M 80,230 L 80,220" style="stroke-width: 1px;opacity: 1" stroke-width="1" opacity="1"/><path fill="none" stroke="#000000" d="M 60,230 L 60,220" style="stroke-width: 1px;opacity: 1" stroke-width="1" opacity="1"/><path fill="none" stroke="#000000" d="M 40,230 L 40,220" style="stroke-width: 1px;opacity: 1" stroke-width="1" opacity="1"/><path fill="none" stroke="#000000" d="M 20,230 L 20,220" style="stroke-width: 1px;opacity: 1" stroke-width="1" opacity="1"/><path fill="none" stroke="#000000" d="M 195,205 L 205,205" style="stroke-width: 1px;opacity: 1" stroke-width="1" opacity="1"/><path fill="none" stroke="#000000" d="M 195,185 L 205,185" style="stroke-width: 1px;opacity: 1" stroke-width="1" opacity="1"/><path fill="none" stroke="#000000" d="M 195,165 L 205,165" style="stroke-width: 1px;opacity: 1" stroke-width="1" opacity="1"/><path fill="none" stroke="#000000" d="M 195,145 L 205,145" style="stroke-width: 1px;opacity: 1" stroke-width="1" opacity="1"/><path fill="none" stroke="#000000" d="M 195,125 L 205,125" style="stroke-width: 1px;opacity: 1" stroke-width="1" opacity="1"/><path fill="none" stroke="#000000" d="M 195,105 L 205,105" style="stroke-width: 1px;opacity: 1" stroke-width="1" opacity="1"/><path fill="none" stroke="#000000" d="M 195,85 L 205,85" style="stroke-width: 1px;opacity: 1" stroke-width="1" opacity="1"/><path fill="none" stroke="#000000" d="M 195,65 L 205,65" style="stroke-width: 1px;opacity: 1" stroke-width="1" opacity="1"/><path fill="none" stroke="#000000" d="M 195,45 L 205,45" style="stroke-width: 1px;opacity: 1" stroke-width="1" opacity="1"/><path fill="none" stroke="#000000" d="M 195,245 L 205,245" style="stroke-width: 1px;opacity: 1" stroke-width="1" opacity="1"/><path fill="none" stroke="#000000" d="M 195,265 L 205,265" style="stroke-width: 1px;opacity: 1" stroke-width="1" opacity="1"/><path fill="none" stroke="#000000" d="M 195,285 L 205,285" style="stroke-width: 1px;opacity: 1" stroke-width="1" opacity="1"/><path fill="none" stroke="#000000" d="M 195,305 L 205,305" style="stroke-width: 1px;opacity: 1" stroke-width="1" opacity="1"/><path fill="none" stroke="#000000" d="M 195,325 L 205,325" style="stroke-width: 1px;opacity: 1" stroke-width="1" opacity="1"/><path fill="none" stroke="#000000" d="M 195,345 L 205,345" style="stroke-width: 1px;opacity: 1" stroke-width="1" opacity="1"/><path fill="none" stroke="#000000" d="M 195,365 L 205,365" style="stroke-width: 1px;opacity: 1" stroke-width="1" opacity="1"/><path fill="none" stroke="#000000" d="M 195,385 L 205,385" style="stroke-width: 1px;opacity: 1" stroke-width="1" opacity="1"/><path fill="none" stroke="#000000" d="M 195,405 L 205,405" style="stroke-width: 1px;opacity: 1" stroke-width="1" opacity="1"/><path fill="none" stroke="#6495ed" d="M 0,45 L 0.5,45.25 L 1,45.5 L 1.5,45.75 L 2,46 L 2.5,46.25 L 3,46.5 L 3.5,46.75 L 4,47 L 4.5,47.25 L 5,47.5 L 5.5,47.75 L 6,48 L 6.5,48.25 L 7,48.5 L 7.5,48.75 L 8,49 L 8.5,49.25 L 9,49.5 L 9.5,49.75 L 10,50 L 10.5,50.25 L 11,50.5 L 11.5,50.75 L 12,51 L 12.5,51.25 L 13,51.5 L 13.5,51.75 L 14,52 L 14.5,52.25 L 15,52.5 L 15.5,52.75 L 16,53 L 16.5,53.25 L 17,53.5 L 17.5,53.75 L 18,54 L 18.5,54.25 L 19,54.5 L 19.5,54.75 L 20,55 L 20.5,55.25 L 21,55.5 L 21.5,55.75 L 22,56 L 22.5,56.25 L 23,56.5 L 23.5,56.75 L 24,57 L 24.5,57.25 L 25,57.5 L 25.5,57.75 L 26,58 L 26.5,58.25 L 27,58.5 L 27.5,58.75 L 28,59 L 28.5,59.25 L 29,59.5 L 29.5,59.75 L 30,60 L 30.5,60.25 L 31,60.5 L 31.5,60.75 L 32,61 L 32.5,61.25 L 33,61.5 L 33.5,61.75 L 34,62 L 34.5,62.25 L 35,62.5 L 35.5,62.75 L 36,63 L 36.5,63.25 L 37,63.5 L 37.5,63.75 L 38,64 L 38.5,64.25 L 39,64.5 L 39.5,64.75 L 40,65 L 40.5,65.25 L 41,65.5 L 41.5,65.75 L 42,66 L 42.5,66.25 L 43,66.5 L 43.5,66.75 L 44,67 L 44.5,67.25 L 45,67.5 L 45.5,67.75 L 46,68 L 46.5,68.25 L 47,68.5 L 47.5,68.75 L 48,69 L 48.5,69.25 L 49,69.5 L 49.5,69.75 L 50,70 L 50.5,70.25 L 51,70.5 L 51.5,70.75 L 52,71 L 52.5,71.25 L 53,71.5 L 53.5,71.75 L 54,72 L 54.5,72.25 L 55,72.5 L 55.5,72.75 L 56,73 L 56.5,73.25 L 57,73.5 L 57.5,73.75 L 58,74 L 58.5,74.25 L 59,74.5 L 59.5,74.75 L 60,75 L 60.5,75.25 L 61,75.5 L 61.5,75.75 L 62,76 L 62.5,76.25 L 63,76.5 L 63.5,76.75 L 64,77 L 64.5,77.25 L 65,77.5 L 65.5,77.75 L 66,78 L 66.5,78.25 L 67,78.5 L 67.5,78.75 L 68,79 L 68.5,79.25 L 69,79.5 L 69.5,79.75 L 70,80 L 70.5,80.25 L 71,80.5 L 71.5,80.75 L 72,81 L 72.5,81.25 L 73,81.5 L 73.5,81.75 L 74,82 L 74.5,82.25 L 75,82.5 L 75.5,82.75 L 76,83 L 76.5,83.25 L 77,83.5 L 77.5,83.75 L 78,84 L 78.5,84.25 L 79,84.5 L 79.5,84.75 L 80,85 L 80.5,85.25 L 81,85.5 L 81.5,85.75 L 82,86 L 82.5,86.25 L 83,86.5 L 83.5,86.75 L 84,87 L 84.5,87.25 L 85,87.5 L 85.5,87.75 L 86,88 L 86.5,88.25 L 87,88.5 L 87.5,88.75 L 88,89 L 88.5,89.25 L 89,89.5 L 89.5,89.75 L 90,90 L 90.5,90.25 L 91,90.5 L 91.5,90.75 L 92,91 L 92.5,91.25 L 93,91.5 L 93.5,91.75 L 94,92 L 94.5,92.25 L 95,92.5 L 95.5,92.75 L 96,93 L 96.5,93.25 L 97,93.5 L 97.5,93.75 L 98,94 L 98.5,94.25 L 99,94.5 L 99.5,94.75 L 100,95 L 100.5,95.25 L 101,95.5 L 101.5,95.75 L 102,96 L 102.5,96.25 L 103,96.5 L 103.5,96.75 L 104,97 L 104.5,97.25 L 105,97.5 L 105.5,97.75 L 106,98 L 106.5,98.25 L 107,98.5 L 107.5,98.75 L 108,99 L 108.5,99.25 L 109,99.5 L 109.5,99.75 L 110,100 L 110.5,100.25 L 111,100.5 L 111.5,100.75 L 112,101 L 112.5,101.25 L 113,101.5 L 113.5,101.75 L 114,102 L 114.5,102.25 L 115,102.5 L 115.5,102.75 L 116,103 L 116.5,103.25 L 117,103.5 L 117.5,103.75 L 118,104 L 118.5,104.25 L 119,104.5 L 119.5,104.75 L 120,105 L 120.5,105.25 L 121,105.5 L 121.5,105.75 L 122,106 L 122.5,106.25 L 123,106.5 L 123.5,106.75 L 124,107 L 124.5,107.25 L 125,107.5 L 125.5,107.75 L 126,108 L 126.5,108.25 L 127,108.5 L 127.5,108.75 L 128,109 L 128.5,109.25 L 129,109.5 L 129.5,109.75 L 130,110 L 130.5,110.25 L 131,110.5 L 131.5,110.75 L 132,111 L 132.5,111.25 L 133,111.5 L 133.5,111.75 L 134,112 L 134.5,112.25 L 135,112.5 L 135.5,112.75 L 136,113 L 136.5,113.25 L 137,113.5 L 137.5,113.75 L 138,114 L 138.5,114.25 L 139,114.5 L 139.5,114.75 L 140,115 L 140.5,115.25 L 141,115.5 L 141.5,115.75 L 142,116 L 142.5,116.25 L 143,116.5 L 143.5,116.75 L 144,117 L 144.5,117.25 L 145,117.5 L 145.5,117.75 L 146,118 L 146.5,118.25 L 147,118.5 L 147.5,118.75 L 148,119 L 148.5,119.25 L 149,119.5 L 149.5,119.75 L 150,120 L 150.5,120.25 L 151,120.5 L 151.5,120.75 L 152,121 L 152.5,121.25 L 153,121.5 L 153.5,121.75 L 154,122 L 154.5,122.25 L 155,122.5 L 155.5,122.75 L 156,123 L 156.5,123.25 L 157,123.5 L 157.5,123.75 L 158,124 L 158.5,124.25 L 159,124.5 L 159.5,124.75 L 160,125 L 160.5,125.25 L 161,125.5 L 161.5,125.75 L 162,126 L 162.5,126.25 L 163,126.5 L 163.5,126.75 L 164,127 L 164.5,127.25 L 165,127.5 L 165.5,127.75 L 166,128 L 166.5,128.25 L 167,128.5 L 167.5,128.75 L 168,129 L 168.5,129.25 L 169,129.5 L 169.5,129.75 L 170,130 L 170.5,130.25 L 171,130.5 L 171.5,130.75 L 172,131 L 172.5,131.25 L 173,131.5 L 173.5,131.75 L 174,132 L 174.5,132.25 L 175,132.5 L 175.5,132.75 L 176,133 L 176.5,133.25 L 177,133.5 L 177.5,133.75 L 178,134 L 178.5,134.25 L 179,134.5 L 179.5,134.75 L 180,135 L 180.5,135.25 L 181,135.5 L 181.5,135.75 L 182,136 L 182.5,136.25 L 183,136.5 L 183.5,136.75 L 184,137 L 184.5,137.25 L 185,137.5 L 185.5,137.75 L 186,138 L 186.5,138.25 L 187,138.5 L 187.5,138.75 L 188,139 L 188.5,139.25 L 189,139.5 L 189.5,139.75 L 190,140 L 190.5,140.25 L 191,140.5 L 191.5,140.75 L 192,141 L 192.5,141.25 L 193,141.5 L 193.5,141.75 L 194,142 L 194.5,142.25 L 195,142.5 L 195.5,142.75 L 196,143 L 196.5,143.25 L 197,143.5 L 197.5,143.75 L 198,144 L 198.5,144.25 L 199,144.5 L 199.5,144.75 L 200,145 L 200.5,145.25 L 201,145.5 L 201.5,145.75 L 202,146 L 202.5,146.25 L 203,146.5 L 203.5,146.75 L 204,147 L 204.5,147.25 L 205,147.5 L 205.5,147.75 L 206,148 L 206.5,148.25 L 207,148.5 L 207.5,148.75 L 208,149 L 208.5,149.25 L 209,149.5 L 209.5,149.75 L 210,150 L 210.5,150.25 L 211,150.5 L 211.5,150.75 L 212,151 L 212.5,151.25 L 213,151.5 L 213.5,151.75 L 214,152 L 214.5,152.25 L 215,152.5 L 215.5,152.75 L 216,153 L 216.5,153.25 L 217,153.5 L 217.5,153.75 L 218,154 L 218.5,154.25 L 219,154.5 L 219.5,154.75 L 220,155 L 220.5,155.25 L 221,155.5 L 221.5,155.75 L 222,156 L 222.5,156.25 L 223,156.5 L 223.5,156.75 L 224,157 L 224.5,157.25 L 225,157.5 L 225.5,157.75 L 226,158 L 226.5,158.25 L 227,158.5 L 227.5,158.75 L 228,159 L 228.5,159.25 L 229,159.5 L 229.5,159.75 L 230,160 L 230.5,160.25 L 231,160.5 L 231.5,160.75 L 232,161 L 232.5,161.25 L 233,161.5 L 233.5,161.75 L 234,162 L 234.5,162.25 L 235,162.5 L 235.5,162.75 L 236,163 L 236.5,163.25 L 237,163.5 L 237.5,163.75 L 238,164 L 238.5,164.25 L 239,164.5 L 239.5,164.75 L 240,165 L 240.5,165.25 L 241,165.5 L 241.5,165.75 L 242,166 L 242.5,166.25 L 243,166.5 L 243.5,166.75 L 244,167 L 244.5,167.25 L 245,167.5 L 245.5,167.75 L 246,168 L 246.5,168.25 L 247,168.5 L 247.5,168.75 L 248,169 L 248.5,169.25 L 249,169.5 L 249.5,169.75 L 250,170 L 250.5,170.25 L 251,170.5 L 251.5,170.75 L 252,171 L 252.5,171.25 L 253,171.5 L 253.5,171.75 L 254,172 L 254.5,172.25 L 255,172.5 L 255.5,172.75 L 256,173 L 256.5,173.25 L 257,173.5 L 257.5,173.75 L 258,174 L 258.5,174.25 L 259,174.5 L 259.5,174.75 L 260,175 L 260.5,175.25 L 261,175.5 L 261.5,175.75 L 262,176 L 262.5,176.25 L 263,176.5 L 263.5,176.75 L 264,177 L 264.5,177.25 L 265,177.5 L 265.5,177.75 L 266,178 L 266.5,178.25 L 267,178.5 L 267.5,178.75 L 268,179 L 268.5,179.25 L 269,179.5 L 269.5,179.75 L 270,180 L 270.5,180.25 L 271,180.5 L 271.5,180.75 L 272,181 L 272.5,181.25 L 273,181.5 L 273.5,181.75 L 274,182 L 274.5,182.25 L 275,182.5 L 275.5,182.75 L 276,183 L 276.5,183.25 L 277,183.5 L 277.5,183.75 L 278,184 L 278.5,184.25 L 279,184.5 L 279.5,184.75 L 280,185 L 280.5,185.25 L 281,185.5 L 281.5,185.75 L 282,186 L 282.5,186.25 L 283,186.5 L 283.5,186.75 L 284,187 L 284.5,187.25 L 285,187.5 L 285.5,187.75 L 286,188 L 286.5,188.25 L 287,188.5 L 287.5,188.75 L 288,189 L 288.5,189.25 L 289,189.5 L 289.5,189.75 L 290,190 L 290.5,190.25 L 291,190.5 L 291.5,190.75 L 292,191 L 292.5,191.25 L 293,191.5 L 293.5,191.75 L 294,192 L 294.5,192.25 L 295,192.5 L 295.5,192.75 L 296,193 L 296.5,193.25 L 297,193.5 L 297.5,193.75 L 298,194 L 298.5,194.25 L 299,194.5 L 299.5,194.75 L 300,195 L 300.5,195.25 L 301,195.5 L 301.5,195.75 L 302,196 L 302.5,196.25 L 303,196.5 L 303.5,196.75 L 304,197 L 304.5,197.25 L 305,197.5 L 305.5,197.75 L 306,198 L 306.5,198.25 L 307,198.5 L 307.5,198.75 L 308,199 L 308.5,199.25 L 309,199.5 L 309.5,199.75 L 310,200 L 310.5,200.25 L 311,200.5 L 311.5,200.75 L 312,201 L 312.5,201.25 L 313,201.5 L 313.5,201.75 L 314,202 L 314.5,202.25 L 315,202.5 L 315.5,202.75 L 316,203 L 316.5,203.25 L 317,203.5 L 317.5,203.75 L 318,204 L 318.5,204.25 L 319,204.5 L 319.5,204.75 L 320,205 L 320.5,205.25 L 321,205.5 L 321.5,205.75 L 322,206 L 322.5,206.25 L 323,206.5 L 323.5,206.75 L 324,207 L 324.5,207.25 L 325,207.5 L 325.5,207.75 L 326,208 L 326.5,208.25 L 327,208.5 L 327.5,208.75 L 328,209 L 328.5,209.25 L 329,209.5 L 329.5,209.75 L 330,210 L 330.5,210.25 L 331,210.5 L 331.5,210.75 L 332,211 L 332.5,211.25 L 333,211.5 L 333.5,211.75 L 334,212 L 334.5,212.25 L 335,212.5 L 335.5,212.75 L 336,213 L 336.5,213.25 L 337,213.5 L 337.5,213.75 L 338,214 L 338.5,214.25 L 339,214.5 L 339.5,214.75 L 340,215 L 340.5,215.25 L 341,215.5 L 341.5,215.75 L 342,216 L 342.5,216.25 L 343,216.5 L 343.5,216.75 L 344,217 L 344.5,217.25 L 345,217.5 L 345.5,217.75 L 346,218 L 346.5,218.25 L 347,218.5 L 347.5,218.75 L 348,219 L 348.5,219.25 L 349,219.5 L 349.5,219.75 L 350,220 L 350.5,220.25 L 351,220.5 L 351.5,220.75 L 352,221 L 352.5,221.25 L 353,221.5 L 353.5,221.75 L 354,222 L 354.5,222.25 L 355,222.5 L 355.5,222.75 L 356,223 L 356.5,223.25 L 357,223.5 L 357.5,223.75 L 358,224 L 358.5,224.25 L 359,224.5 L 359.5,224.75 L 360,225 L 360.5,225.25 L 361,225.5 L 361.5,225.75 L 362,226 L 362.5,226.25 L 363,226.5 L 363.5,226.75 L 364,227 L 364.5,227.25 L 365,227.5 L 365.5,227.75 L 366,228 L 366.5,228.25 L 367,228.5 L 367.5,228.75 L 368,229 L 368.5,229.25 L 369,229.5 L 369.5,229.75 L 370,230 L 370.5,230.25 L 371,230.5 L 371.5,230.75 L 372,231 L 372.5,231.25 L 373,231.5 L 373.5,231.75 L 374,232 L 374.5,232.25 L 375,232.5 L 375.5,232.75 L 376,233 L 376.5,233.25 L 377,233.5 L 377.5,233.75 L 378,234 L 378.5,234.25 L 379,234.5 L 379.5,234.75 L 380,235 L 380.5,235.25 L 381,235.5 L 381.5,235.75 L 382,236 L 382.5,236.25 L 383,236.5 L 383.5,236.75 L 384,237 L 384.5,237.25 L 385,237.5 L 385.5,237.75 L 386,238 L 386.5,238.25 L 387,238.5 L 387.5,238.75 L 388,239 L 388.5,239.25 L 389,239.5 L 389.5,239.75 L 390,240 L 390.5,240.25 L 391,240.5 L 391.5,240.75 L 392,241 L 392.5,241.25 L 393,241.5 L 393.5,241.75 L 394,242 L 394.5,242.25 L 395,242.5 L 395.5,242.75 L 396,243 L 396.5,243.25 L 397,243.5 L 397.5,243.75 L 398,244 L 398.5,244.25 L 399,244.5 L 399.5,244.75" style="stroke-width: 2px" stroke-width="2" clip-path="url(#clip-1)"/></svg>